<svg xmlns="http://www.w3.org/2000/svg" width="32" height="32" fill="none" viewBox="0 0 32 32"><path fill="#FC7909" d="m27.684 9.803-6.666-8a1.34 1.34 0 0 0-1.025-.48h-14a2 2 0 0 0-2 2v25.334a2 2 0 0 0 2 2h20a2 2 0 0 0 2-2v-18c0-.042-.067-.556-.309-.854"/><path fill="#FFB169" d="M21.017 1.803a1.34 1.34 0 0 0-1.024-.48v7.334a2 2 0 0 0 2 2h6c0-.042-.067-.555-.31-.853z"/><path fill="#FFF" fill-rule="evenodd" d="M17.799 13.365h-.694a.83.83 0 0 0-.81.64l-2.39 10.02a.333.333 0 0 0 .324.41h.7a.83.83 0 0 0 .811-.64l2.385-10.02a.333.333 0 0 0-.326-.41m1.968 1.651 5.534 2.865a.63.63 0 0 1 .338.557v.93c0 .233-.13.447-.338.554l-5.534 2.865a.417.417 0 0 1-.607-.37v-.969c0-.392.22-.75.569-.928l3.182-1.62-3.182-1.62a1.04 1.04 0 0 1-.57-.927v-.967a.417.417 0 0 1 .608-.37m-6.94.37v.966c0 .392-.22.751-.57.929L9.076 18.9l3.183 1.619c.349.178.569.536.569.928v.969a.417.417 0 0 1-.609.37l-5.533-2.865a.63.63 0 0 1-.338-.555v-.93c0-.233.13-.447.338-.554l5.533-2.865a.417.417 0 0 1 .609.368"/></svg>